<svg xmlns="http://www.w3.org/2000/svg" width="82" height="82" viewBox="0 0 82 82" xmlns:xlink="http://www.w3.org/1999/xlink">
  <defs>
    <rect id="a" width="39.319" height="22.5" x="6.957" y="21.316" rx="2"/>
    <mask id="e" width="39.319" height="22.5" x="0" y="0" fill="white">
      <use xlink:href="#a"/>
    </mask>
    <rect id="b" width="15.489" height="10.658" x="14.106" y="27.237" rx="2"/>
    <mask id="f" width="15.489" height="10.658" x="0" y="0" fill="white">
      <use xlink:href="#b"/>
    </mask>
    <rect id="c" width="8.34" height="10.658" y="27.237" rx="2"/>
    <mask id="g" width="8.34" height="10.658" x="0" y="0" fill="white">
      <use xlink:href="#c"/>
    </mask>
    <path id="d" d="M44.893617,27.2368421 L54.3132012,22.4849056 C55.7970792,21.7363275 57,22.4748791 57,24.1196793 L57,41.0118997 C57,42.6633383 55.7949336,43.394169 54.3132012,42.6466734 L44.893617,37.8947368 L44.893617,27.2368421 Z"/>
    <mask id="h" width="12.106" height="20.748" x="0" y="0" fill="white">
      <use xlink:href="#d"/>
    </mask>
  </defs>
  <g fill="none" fill-rule="evenodd">
    <path fill="#FFFFFF" fill-rule="nonzero" d="M41,82 C18.3563253,82 0,63.6436747 0,41 C0,18.3563253 18.3563253,0 41,0 C63.6436747,0 82,18.3563253 82,41 C82,63.6436747 63.6436747,82 41,82 Z M41,80 C62.5391052,80 80,62.5391052 80,41 C80,19.4608948 62.5391052,2 41,2 C19.4608948,2 2,19.4608948 2,41 C2,62.5391052 19.4608948,80 41,80 Z"/>
    <g transform="translate(10 16)">
      <use stroke="#FFFFFF" stroke-width="4" mask="url(#e)" xlink:href="#a"/>
      <use stroke="#FFFFFF" stroke-width="4" mask="url(#f)" xlink:href="#b"/>
      <use stroke="#FFFFFF" stroke-width="4" mask="url(#g)" xlink:href="#c"/>
      <use stroke="#FFFFFF" stroke-width="4" mask="url(#h)" xlink:href="#d"/>
      <ellipse cx="15.894" cy="14.803" stroke="#FFFFFF" stroke-width="2" rx="7.745" ry="7.697"/>
      <ellipse cx="15.894" cy="14.803" stroke="#FFFFFF" stroke-width="2" rx="2.979" ry="2.961"/>
      <ellipse cx="34.957" cy="11.25" stroke="#FFFFFF" stroke-width="2" rx="11.319" ry="11.25"/>
      <ellipse cx="34.957" cy="11.25" stroke="#FFFFFF" stroke-width="2" rx="5.362" ry="5.329"/>
      <ellipse cx="37.34" cy="29.013" fill="#FFFFFF" rx="1.787" ry="1.776"/>
      <ellipse cx="37.34" cy="36.118" fill="#FFFFFF" rx="1.787" ry="1.776"/>
    </g>
  </g>
</svg>
