<svg xmlns="http://www.w3.org/2000/svg" width="82" height="82" viewBox="0 0 82 82" xmlns:xlink="http://www.w3.org/1999/xlink">
  <defs>
    <path id="a" d="M40.0477768,70.6472546 C40.0477768,70.6472546 19.6121397,46.0356623 19.6121397,31.4356371 C19.6121397,20.1493464 28.761486,11 40.0477768,11 C51.3340675,11 60.4834139,20.1493464 60.4834139,31.4356371 C60.4834139,45.6003251 40.0477768,70.6472546 40.0477768,70.6472546 Z M40.0477768,47.1029589 C48.7005997,47.1029589 55.7150986,40.08846 55.7150986,31.4356371 C55.7150986,22.7828142 48.7005997,15.7683153 40.0477768,15.7683153 C31.3949539,15.7683153 24.380455,22.7828142 24.380455,31.4356371 C24.380455,40.08846 31.3949539,47.1029589 40.0477768,47.1029589 Z"/>
    <mask id="b" width="44.871" height="63.647" x="-2" y="-2">
      <rect width="44.871" height="63.647" x="17.612" y="9" fill="white"/>
      <use fill="black" xlink:href="#a"/>
    </mask>
  </defs>
  <g fill="none" fill-rule="evenodd">
    <use stroke="#FFFFFF" stroke-width="4" mask="url(#b)" xlink:href="#a"/>
    <path stroke="#FFFFFF" stroke-width="2" d="M37,28 L43,28 L43,22.5004358 C43,22.2240528 43.2319336,22 43.5,22 C43.7761424,22 44,22.2307968 44,22.5004358 L44,28 L47,28 L47,34.5 C47,38.0898509 44.099191,41 40.491827,41 L39.508173,41 C35.9138083,41 33,38.0825462 33,34.5 L33,28 L36,28 L36,22.5004358 C36,22.2240528 36.2319336,22 36.5,22 C36.7761424,22 37,22.2307968 37,22.5004358 L37,28 Z" stroke-linecap="round" stroke-linejoin="round" transform="rotate(45 40 31.5)"/>
    <path fill="#FFFFFF" fill-rule="nonzero" d="M41,82 C18.3563253,82 0,63.6436747 0,41 C0,18.3563253 18.3563253,0 41,0 C63.6436747,0 82,18.3563253 82,41 C82,63.6436747 63.6436747,82 41,82 Z M41,80 C62.5391052,80 80,62.5391052 80,41 C80,19.4608948 62.5391052,2 41,2 C19.4608948,2 2,19.4608948 2,41 C2,62.5391052 19.4608948,80 41,80 Z"/>
  </g>
</svg>
