<svg xmlns="http://www.w3.org/2000/svg" width="82" height="82" viewBox="0 0 82 82">
  <g fill="#FFFFFF">
    <path d="M41,82 C18.3563253,82 0,63.6436747 0,41 C0,18.3563253 18.3563253,0 41,0 C63.6436747,0 82,18.3563253 82,41 C82,63.6436747 63.6436747,82 41,82 Z M41,80 C62.5391052,80 80,62.5391052 80,41 C80,19.4608948 62.5391052,2 41,2 C19.4608948,2 2,19.4608948 2,41 C2,62.5391052 19.4608948,80 41,80 Z"/>
    <g transform="translate(14 14)">
      <ellipse cx="12.5" cy="43.728" rx="1.25" ry="1.248"/>
      <ellipse cx="42.5" cy="43.728" rx="1.25" ry="1.248"/>
      <ellipse cx="27.5" cy="33.74" rx="1.25" ry="1.248"/>
      <path d="M50.0000488,29.2450644 L43.7500293,27.9965665 C42.5000684,27.7468884 41.3750391,27.1225322 40.4999805,26.2486052 L33.8749512,19.6313305 C32.4999512,18.2579399 30.6249023,17.5087983 28.6249219,17.5087983 L23.7499023,17.5087983 L23.7499023,16.2603004 C23.7499023,14.8869099 24.8749316,13.7631974 26.2499316,13.7631974 L33.7499121,13.7631974 C36.4999121,13.7631974 38.7498633,11.5158798 38.7498633,8.76909871 C38.7498633,6.0223176 36.4999121,3.775 33.7499121,3.775 L19.8749805,3.775 C19.3749316,1.65246781 17.3749512,0.0293991416 14.9999609,0.0293991416 L12.4999316,0.0293991416 C11.7499121,0.0293991416 11.2499707,0.528862661 11.2499707,1.277897 L8.75004883,1.277897 C8.0000293,1.277897 7.50008789,1.77736052 7.50008789,2.52639485 C7.50008789,3.27542918 8.00013672,3.7748927 8.75004883,3.7748927 L11.2500781,3.7748927 L11.2500781,6.27199571 L8.75004883,6.27199571 C8.0000293,6.27199571 7.50008789,6.77145923 7.50008789,7.52049356 C7.50008789,8.26963519 8.00013672,8.76899142 8.75004883,8.76899142 L11.2500781,8.76899142 C11.2500781,9.51813305 11.750127,10.0174893 12.5000391,10.0174893 L15.0000684,10.0174893 C15.7500879,10.0174893 16.2500293,9.51802575 16.2500293,8.76899142 C16.2500293,8.01995708 15.7499805,7.52049356 15.0000684,7.52049356 L13.75,7.52049356 L13.75,2.52628755 L14.9999609,2.52628755 C16.3749609,2.52628755 17.4999902,3.65 17.4999902,5.02339056 C17.4999902,5.77253219 18.0000391,6.27188841 18.7499512,6.27188841 L33.7499121,6.27188841 C35.1249121,6.27188841 36.2499414,7.39560086 36.2499414,8.76899142 C36.2499414,10.142382 35.1249121,11.2660944 33.7499121,11.2660944 L26.2499316,11.2660944 C23.4999316,11.2660944 21.2499805,13.513412 21.2499805,16.2601931 L21.2499805,17.508691 L16.8750098,17.508691 C14.5000195,17.508691 12.2499609,18.6324034 10.8749609,20.5051502 L8.12496094,24.2507511 C7.74995117,24.7502146 7.87499023,25.6241416 8.37493164,25.9987124 C8.87487305,26.3732833 9.62489258,26.2483906 9.99990234,25.7490343 L12.7499023,22.0034335 C13.7498926,20.7549356 15.1248926,20.005794 16.7498633,20.005794 L21.249873,20.005794 L21.249873,27.4969957 L3.74999023,27.4969957 C1.6249707,27.497103 0,29.1201717 0,31.2427039 L0,38.7339056 C0,42.2298283 2.75,44.9766094 6.25001953,44.9766094 L6.37505859,44.9766094 C7.00003906,47.8482833 9.50006836,49.9707082 12.5000391,49.9707082 C16.0000586,49.9707082 18.7500586,47.223927 18.7500586,43.7280043 C18.7500586,40.2320815 16.0000586,37.4853004 12.5000391,37.4853004 C9.50006836,37.4853004 7.00003906,39.6078326 6.37505859,42.4793991 L6.25001953,42.4793991 C4.125,42.4793991 2.5000293,40.8563305 2.5000293,38.7337983 L2.5000293,31.2425966 C2.5000293,30.4934549 3.00007812,29.9940987 3.74999023,29.9940987 L21.2499805,29.9940987 L21.2499805,43.7280043 C21.2499805,44.4771459 21.7500293,44.9765021 22.4999414,44.9765021 L36.3749805,44.9765021 C36.9999609,47.848176 39.4999902,49.9706009 42.4999609,49.9706009 C45.4999316,49.9706009 47.9999609,47.8480687 48.6249414,44.9765021 L51.2499023,44.9765021 C53.3749219,44.9765021 54.9998926,43.3534335 54.9998926,41.2309013 L54.9998926,35.3627682 C55,32.3664163 52.8749805,29.7444206 50.0000488,29.2450644 Z M12.5000391,39.9824034 C14.6250586,39.9824034 16.2500293,41.6054721 16.2500293,43.7280043 C16.2500293,45.8505365 14.6250586,47.4736052 12.5000391,47.4736052 C10.3750195,47.4736052 8.75004883,45.8505365 8.75004883,43.7280043 C8.75004883,41.6055794 10.3750195,39.9824034 12.5000391,39.9824034 Z M42.4999609,47.4736052 C40.3749414,47.4736052 38.7499707,45.8505365 38.7499707,43.7280043 C38.7499707,41.6054721 40.3749414,39.9824034 42.4999609,39.9824034 C44.6249805,39.9824034 46.2499512,41.6054721 46.2499512,43.7280043 C46.2499512,45.8505365 44.6249805,47.4736052 42.4999609,47.4736052 Z M51.2500098,42.4795064 L48.6250488,42.4795064 C48.0000684,39.6078326 45.5000391,37.4854077 42.5000684,37.4854077 C39.5000977,37.4854077 37.0000684,39.6079399 36.3750879,42.4795064 L23.7500098,42.4795064 L23.7500098,29.9940987 L34.9999805,29.9940987 C35.75,29.9940987 36.2499414,29.4946352 36.2499414,28.7456009 C36.2499414,27.9965665 35.7498926,27.497103 34.9999805,27.497103 L23.7500098,27.497103 L23.7500098,20.0059013 L28.6250293,20.0059013 C30.0000293,20.0059013 31.2499902,20.5053648 32.1250488,21.5041845 L38.6250391,28.1214592 C39.875,29.3699571 41.3750391,30.1190987 43.1250488,30.4936695 L49.3750684,31.7421674 C51.1250781,32.1167382 52.3750391,33.6150215 52.3750391,35.3628755 L52.3750391,41.2310086 L52.5000781,41.2310086 C52.4999707,41.9800429 52.0000293,42.4795064 51.2500098,42.4795064 Z"/>
    </g>
  </g>
</svg>
