<svg xmlns="http://www.w3.org/2000/svg" width="82" height="82" viewBox="0 0 82 82">
  <g fill="#FFFFFF">
    <path d="M28.7853281,50.8575742 C29.8186797,50.8575742 30.7901797,50.4554258 31.5200508,49.7246484 C32.0207539,49.2248516 32.3388477,48.6168711 32.5070703,47.9778516 L34.5380898,50.0078516 C35.2679609,50.7386289 36.2394609,51.1407773 37.271793,51.1407773 C38.3051445,51.1407773 39.2757383,50.7386289 40.0054961,50.0078516 C40.7362734,49.2779805 41.1384219,48.3064805 41.1384219,47.2741484 C41.1384219,46.2407969 40.7362734,45.2702031 40.0054961,44.5394258 L38.260625,42.7945547 C38.9121055,42.6224805 39.5153281,42.2957773 40.0054961,41.8056094 C40.7362734,41.074832 41.1384219,40.1042383 41.1384219,39.0708867 C41.1384219,38.0384414 40.7362734,37.0669414 40.0054961,36.3371836 L37.576293,33.9079805 C38.228793,33.7359062 38.8320156,33.4092031 39.3220703,32.9190352 C40.0528477,32.1891641 40.4549961,31.2186836 40.4549961,30.185332 C40.4549961,29.1519805 40.0528477,28.1813867 39.3220703,27.4516289 L32.4665156,20.5950547 L32.4665156,13.9666289 C32.4665156,13.4330742 32.0334414,13 31.4998867,13 C30.966332,13 30.5332578,13.4330742 30.5332578,13.9666289 L30.5332578,19.1092578 C29.1325352,18.5640352 27.4292383,18.8386289 26.3350547,19.9319063 C25.1354063,21.1334805 24.9072578,22.9266094 25.6187773,24.370832 C24.8686289,24.5032578 24.1552969,24.8454805 23.600332,25.4012383 C22.4094062,26.5931836 22.1754805,28.3688672 22.8676289,29.808332 C22.1146484,29.9523125 21.4205742,30.3148125 20.8666289,30.8687578 C19.6757031,32.0607031 19.4407578,33.8374063 20.1339258,35.2767578 C19.3799258,35.4207383 18.6868711,35.7832383 18.1329258,36.3371836 C17.4021484,37.0670547 17,38.0385547 17,39.0708867 C17,40.1042383 17.4021484,41.074832 18.1329258,41.8056094 L26.0518516,49.7245352 C26.7814961,50.4554258 27.7529961,50.8575742 28.7853281,50.8575742 Z M27.7016797,21.2988711 C28.067125,20.9344453 28.5523086,20.7333711 29.0685312,20.7333711 C29.5856602,20.7333711 30.070957,20.9344453 30.4364023,21.2988711 L30.8163477,21.6788164 L37.9552188,28.8185938 C38.3206641,29.1840391 38.521625,29.6692227 38.521625,30.1854453 C38.521625,30.701668 38.3205508,31.1869648 37.9552188,31.5522969 C37.2244414,32.282168 35.9512734,32.282168 35.2215156,31.5522969 L27.701793,24.0335938 C26.9486992,23.2794805 26.9486992,22.0528711 27.7016797,21.2988711 Z M24.966957,26.7682031 C25.3324023,26.4027578 25.8186055,26.2016836 26.3348281,26.2016836 C26.8510508,26.2016836 27.3363477,26.4027578 27.7016797,26.7682031 L38.6385313,37.7041484 C39.0039766,38.0695938 39.2049375,38.5547773 39.2049375,39.071 C39.2049375,39.5881289 39.0038633,40.0734258 38.6385313,40.4388711 C37.9086602,41.1687422 36.6345859,41.1687422 35.9048281,40.4388711 L31.651457,36.1855 L26.3348281,30.8688711 C26.3338086,30.8678516 24.966957,29.5020195 24.966957,29.5020195 C24.2139766,28.7480195 24.2139766,27.5212969 24.966957,26.7682031 Z M22.2332539,32.2357227 C22.5986992,31.8712969 23.0838828,31.6702227 23.601125,31.6702227 C24.1163281,31.6702227 24.601625,31.8702773 24.9660508,32.2337969 L30.2846055,37.5523516 L38.6385312,45.9072969 C39.0039766,46.2717227 39.2049375,46.7570195 39.2049375,47.2741484 C39.2049375,47.7903711 39.0038633,48.275668 38.6385312,48.641 C37.9086602,49.3708711 36.6345859,49.3708711 35.9048281,48.641 L31.5219766,44.2590547 C31.5219766,44.2580352 27.5605312,40.2965898 27.5605312,40.2965898 L22.2341602,34.9702188 C21.4802734,34.2164453 21.4802734,32.9897227 22.2332539,32.2357227 Z M18.9330312,39.071 C18.9330312,38.5547773 19.1341055,38.0694805 19.4995508,37.7041484 C19.8649961,37.3397227 20.3501797,37.1386484 20.8664023,37.1386484 C21.3835312,37.1386484 21.8688281,37.3397227 22.2332539,37.7041484 L22.7910508,38.2619453 L30.1561445,45.6270391 C30.906293,46.3810391 30.906293,47.6048164 30.1531992,48.3579102 C29.4233281,49.0877813 28.1492539,49.0886875 27.4184766,48.3579102 L19.4995508,40.4389844 C19.1341055,40.0734258 18.9330312,39.5881289 18.9330312,39.071 Z M59.5050508,37.1666289 C59.5050508,30.7944453 56.9153281,27.1385195 55.2025156,24.7189453 C54.3325156,23.4922227 53.7051641,22.6047773 53.7051641,21.7 L53.7051641,13.9666289 C53.7051641,13.4330742 54.1372188,13 54.671793,13 C55.2053477,13 55.6384219,13.4330742 55.6384219,13.9666289 L55.6384219,21.7 C55.6384219,21.99 56.2705313,22.8832227 56.7789375,23.6014258 C58.5218828,26.0615547 61.4383086,30.1795547 61.4383086,37.1666289 C61.4383086,37.7001836 61.0052344,38.1332578 60.4716797,38.1332578 C59.9371055,38.1332578 59.5050508,37.7001836 59.5050508,37.1666289 Z M31.4997734,67.1333711 C32.0333281,67.1333711 32.4664023,67.5664453 32.4664023,68.1 L32.4664023,70.0333711 C32.4664023,70.5669258 32.0333281,71 31.4997734,71 C30.9662187,71 30.5331445,70.5669258 30.5331445,70.0333711 L30.5331445,68.1 C30.5331445,67.5664453 30.9662187,67.1333711 31.4997734,67.1333711 Z M57.1405312,38.2957031 C59.8153281,40.0792031 63.3716797,43.2045195 63.3716797,49.7331445 C63.3716797,54.4030508 60.0869766,60.0648477 57.6896055,64.1992734 C56.7596797,65.8019766 55.7060508,67.6193477 55.6664023,68.1104219 L55.6664023,70.0331445 C55.6664023,70.5666992 55.2333281,70.9997734 54.6997734,70.9997734 C54.1662187,70.9997734 53.7331445,70.5666992 53.7331445,70.0331445 L53.7331445,68.0997734 C53.7331445,67.2056445 54.4745703,65.8880703 56.0173477,63.228793 C58.1759219,59.5071641 61.4384219,53.8820703 61.4384219,49.7331445 C61.4384219,44.1941445 58.5683281,41.5705508 56.0685508,39.9040703 C53.8442734,38.4212188 46.5265312,34.1784961 46.453125,34.1360156 C46.0451992,34.1630898 45.0050508,35.9465898 45.0050508,37.1665156 C45.0050508,38.0964414 45.6961797,38.738293 47.0205508,39.8857188 C47.5009766,40.3023672 48.0461992,40.7730508 48.5884766,41.3163477 L53.4218477,46.1497188 C54.5142187,47.2420898 54.671793,47.4837188 54.671793,48.7665156 C54.671793,49.1048867 54.671793,50.1333672 50.5218477,54.2833125 L39.855625,63.9818867 C39.7599023,64.0776094 38.5999023,65.1998867 37.2716797,65.1998867 L28.5716797,65.1998867 C26.4392734,65.1998867 24.7050508,63.4657773 24.7050508,61.3332578 C24.7050508,60.6092773 24.9167734,59.939332 25.2647734,59.359332 C23.325625,59.1524805 21.8050508,57.5265547 21.8050508,55.5332578 C21.8050508,54.8092773 22.0167734,54.139332 22.3647734,53.559332 C20.425625,53.3524805 18.9050508,51.7265547 18.9050508,49.7332578 C18.9050508,48.7792031 19.2549766,47.8636641 19.8910508,47.1541836 C20.2467539,46.756793 20.8576797,46.7220156 21.2559766,47.0787383 C21.6532539,47.4354609 21.687125,48.0463867 21.3304023,48.4446836 C21.0133281,48.7984609 20.8384219,49.2557773 20.8384219,49.7332578 C20.8384219,50.7995742 21.7055898,51.6666289 22.771793,51.6666289 L25.671793,51.6666289 L33.4051641,51.6666289 C33.9387187,51.6666289 34.371793,52.0997031 34.371793,52.6332578 C34.371793,53.1668125 33.9387187,53.5998867 33.4051641,53.5998867 L25.671793,53.5998867 C24.6054766,53.5998867 23.7384219,54.4670547 23.7384219,55.5332578 C23.7384219,56.5995742 24.6055898,57.4666289 25.671793,57.4666289 L28.571793,57.4666289 L35.3384219,57.4666289 C35.7163281,57.4666289 36.3099219,57.0567773 36.5911992,56.7802578 L43.3549961,50.0164609 C43.7319961,49.6384414 44.3438281,49.6384414 44.7218477,50.0164609 C45.0988477,50.3943672 45.0988477,51.0054063 44.7218477,51.3833125 L37.9552187,58.1499414 C37.8266445,58.2776094 36.6666445,59.3998867 35.3384219,59.3998867 L28.571793,59.3998867 C27.5054766,59.3998867 26.6384219,60.2669414 26.6384219,61.3332578 C26.6384219,62.3995742 27.5055898,63.2666289 28.571793,63.2666289 L37.271793,63.2666289 C37.6496992,63.2666289 38.243293,62.8567773 38.5245703,62.5802578 L49.1878477,52.8846289 C50.7248477,51.3457031 52.5102734,49.3041484 52.7384219,48.6932227 C52.7384219,48.4911289 52.7364961,48.2852969 52.7190508,48.2311484 C52.6774766,48.1402969 52.3750156,47.8377227 52.0549961,47.5167969 L47.221625,42.6834258 C46.7277187,42.1904258 46.2336992,41.7612031 45.7551992,41.3475 C44.3747539,40.1526094 43.0716797,39.0236484 43.0716797,37.1666289 C43.0716797,35.8326289 43.9387344,33.4362773 45.3520312,32.563332 C46.0074766,32.157332 46.7247734,32.1128125 47.3704766,32.4347578 C47.7261797,32.6387773 54.8669766,36.78 57.1405312,38.2957031 Z" transform="rotate(-60 40.186 42)"/>
    <path d="M41,82 C18.3563253,82 0,63.6436747 0,41 C0,18.3563253 18.3563253,0 41,0 C63.6436747,0 82,18.3563253 82,41 C82,63.6436747 63.6436747,82 41,82 Z M41,80 C62.5391052,80 80,62.5391052 80,41 C80,19.4608948 62.5391052,2 41,2 C19.4608948,2 2,19.4608948 2,41 C2,62.5391052 19.4608948,80 41,80 Z"/>
  </g>
</svg>
