<svg xmlns="http://www.w3.org/2000/svg" width="284" height="25" viewBox="0 0 284 25">
  <defs>
    <linearGradient id="a" x1="98.869%" x2="1.131%" y1="48.869%" y2="48.869%">
      <stop stop-color="#70BC1F" offset="0%"/>
      <stop stop-color="#00ACE1" offset="100%"/>
    </linearGradient>
  </defs>
  <g fill="none" fill-rule="evenodd">
    <path fill="url(#a)" d="M29.9723638,6.49020654 L0,6.49020654 L5.09559721,0.282937879 L34.8310858,0.282937879 L45.6400364,16.0163424 L57.0279619,0.282937879 L65.730106,0.282937879 L52.5179984,18.5153105 C48.605321,23.9147059 42.3046838,23.8799069 38.449269,18.443419 L29.9723638,6.49020654 Z M22.0799047,15.2224788 L7.56555392,15.2224788 L7.56555392,18.9501753 L28.7819986,18.9501753 L22.0799047,24.3796463 L0,24.3796463 L0,9.63093412 L28.7819986,9.63093412 L22.0799047,15.2224788 Z"/>
    <path fill="#00ACE1" stroke="#00ACE1" d="M72.1563518,21.9766728 L82.4470453,21.9766728 L82.4470453,20.9944751 L73.2202008,20.9944751 L73.2202008,15.2445263 L81.4241135,15.2445263 L81.4241135,14.2623286 L73.2202008,14.2623286 L73.2202008,8.63515449 L82.3447521,8.63515449 L82.3447521,7.65295682 L72.1563518,7.65295682 L72.1563518,21.9766728 Z M85.8636374,21.9766728 L95.3359855,21.9766728 L95.3359855,20.9944751 L86.9274864,20.9944751 L86.9274864,7.65295682 L85.8636374,7.65295682 L85.8636374,21.9766728 Z M98.5275326,21.9766728 L108.818226,21.9766728 L108.818226,20.9944751 L99.5913816,20.9944751 L99.5913816,15.2445263 L107.795294,15.2445263 L107.795294,14.2623286 L99.5913816,14.2623286 L99.5913816,8.63515449 L108.715933,8.63515449 L108.715933,7.65295682 L98.5275326,7.65295682 L98.5275326,21.9766728 Z M118.720205,22.2222222 C121.257076,22.2222222 122.893767,21.2195621 124.407706,19.7258032 L123.691654,19.0300798 C122.239091,20.4624514 120.827445,21.260487 118.761123,21.260487 C115.344531,21.260487 112.705367,18.4366687 112.705367,14.8148148 L112.705367,14.7738899 C112.705367,11.1724985 115.303613,8.36914262 118.740664,8.36914262 C120.888821,8.36914262 122.320925,9.26949048 123.568902,10.4767751 L124.325872,9.69920196 C122.85285,8.34868017 121.318452,7.40740741 118.761123,7.40740741 C114.628478,7.40740741 111.6006,10.7632494 111.6006,14.8148148 L111.6006,14.8557397 C111.6006,18.9686924 114.628478,22.2222222 118.720205,22.2222222 Z M131.302266,21.9766728 L132.366115,21.9766728 L132.366115,8.63515449 L137.358022,8.63515449 L137.358022,7.65295682 L126.310359,7.65295682 L126.310359,8.63515449 L131.302266,8.63515449 L131.302266,21.9766728 Z M140.590487,21.9766728 L140.590487,7.65295682 L146.605325,7.65295682 C148.364768,7.65295682 149.776414,8.20544301 150.635676,9.06486597 C151.310811,9.74012687 151.719984,10.7018621 151.719984,11.7249847 L151.719984,11.7659096 C151.719984,14.1600164 149.940083,15.5310006 147.525964,15.8583998 L152.251909,21.9766728 L150.901639,21.9766728 L146.339363,16.0425619 L141.654336,16.0425619 L141.654336,21.9766728 L140.590487,21.9766728 Z M141.654336,15.0808267 L146.482573,15.0808267 C148.876234,15.0808267 150.656135,13.8735421 150.656135,11.8068345 L150.656135,11.7659096 C150.656135,9.84243912 149.142196,8.63515449 146.543949,8.63515449 L141.654336,8.63515449 L141.654336,15.0808267 Z M155.52529,21.9766728 L156.589139,21.9766728 L156.589139,7.65295682 L155.52529,7.65295682 L155.52529,21.9766728 Z M167.473133,22.2222222 C170.010004,22.2222222 171.646695,21.2195621 173.160634,19.7258032 L172.444582,19.0300798 C170.992018,20.4624514 169.580373,21.260487 167.51405,21.260487 C164.097458,21.260487 161.458294,18.4366687 161.458294,14.8148148 L161.458294,14.7738899 C161.458294,11.1724985 164.056541,8.36914262 167.493592,8.36914262 C169.641748,8.36914262 171.073853,9.26949048 172.32183,10.4767751 L173.078799,9.69920196 C171.605777,8.34868017 170.07138,7.40740741 167.51405,7.40740741 C163.381406,7.40740741 160.353528,10.7632494 160.353528,14.8148148 L160.353528,14.8557397 C160.353528,18.9686924 163.381406,22.2222222 167.473133,22.2222222 Z M187.297551,22.0789851 L188.238648,22.0789851 L194.539908,7.65295682 L193.414683,7.65295682 L187.788558,20.8307755 L182.182892,7.65295682 L180.996291,7.65295682 L187.297551,22.0789851 Z M197.567786,21.9766728 L207.858479,21.9766728 L207.858479,20.9944751 L198.631635,20.9944751 L198.631635,15.2445263 L206.835547,15.2445263 L206.835547,14.2623286 L198.631635,14.2623286 L198.631635,8.63515449 L207.756186,8.63515449 L207.756186,7.65295682 L197.567786,7.65295682 L197.567786,21.9766728 Z M211.275071,21.9766728 L212.33892,21.9766728 L212.33892,15.2649887 L221.504389,15.2649887 L221.504389,21.9766728 L222.568238,21.9766728 L222.568238,7.65295682 L221.504389,7.65295682 L221.504389,14.2827911 L212.33892,14.2827911 L212.33892,7.65295682 L211.275071,7.65295682 L211.275071,21.9766728 Z M226.966844,21.9766728 L228.030693,21.9766728 L228.030693,7.65295682 L226.966844,7.65295682 L226.966844,21.9766728 Z M238.914687,22.2222222 C241.451558,22.2222222 243.088249,21.2195621 244.602188,19.7258032 L243.886136,19.0300798 C242.433573,20.4624514 241.021927,21.260487 238.955605,21.260487 C235.539012,21.260487 232.899849,18.4366687 232.899849,14.8148148 L232.899849,14.7738899 C232.899849,11.1724985 235.498095,8.36914262 238.935146,8.36914262 C241.083303,8.36914262 242.515407,9.26949048 243.763384,10.4767751 L244.520353,9.69920196 C243.047332,8.34868017 241.512934,7.40740741 238.955605,7.40740741 C234.82296,7.40740741 231.795082,10.7632494 231.795082,14.8148148 L231.795082,14.8557397 C231.795082,18.9686924 234.82296,22.2222222 238.914687,22.2222222 Z M247.527773,21.9766728 L257.000121,21.9766728 L257.000121,20.9944751 L248.591622,20.9944751 L248.591622,7.65295682 L247.527773,7.65295682 L247.527773,21.9766728 Z M260.191668,21.9766728 L270.482361,21.9766728 L270.482361,20.9944751 L261.255517,20.9944751 L261.255517,15.2445263 L269.45943,15.2445263 L269.45943,14.2623286 L261.255517,14.2623286 L261.255517,8.63515449 L270.380068,8.63515449 L270.380068,7.65295682 L260.191668,7.65295682 L260.191668,21.9766728 Z M278.74765,22.1812973 C281.509566,22.1812973 283.494053,20.5852261 283.494053,18.2729691 L283.494053,18.2320442 C283.494053,16.1448742 282.102866,14.958052 278.788567,14.2827911 C275.392434,13.5870677 274.615006,12.6662574 274.615006,11.152036 L274.615006,11.1111111 C274.615006,9.61735216 276.006193,8.41006753 278.113432,8.41006753 C279.688747,8.41006753 281.039017,8.86024146 282.389287,10.0266012 L283.064422,9.18764068 C281.611859,8.02128095 280.24113,7.44833231 278.15435,7.44833231 C275.494727,7.44833231 273.551157,9.08532842 273.551157,11.2134234 L273.551157,11.2543483 C273.551157,13.4233681 274.942344,14.5897278 278.379395,15.2854512 C281.632318,15.9402496 282.430204,16.8201351 282.430204,18.3343565 L282.430204,18.3752814 C282.430204,20.0122775 280.957183,21.2195621 278.809026,21.2195621 C276.701786,21.2195621 275.249223,20.5443012 273.673908,19.0914672 L272.978315,19.8895028 C274.69684,21.4241866 276.456283,22.1812973 278.74765,22.1812973 Z"/>
  </g>
</svg>
