<svg xmlns="http://www.w3.org/2000/svg" width="142" height="13" viewBox="0 0 142 13">
  <g fill="#FFFFFF" fill-rule="evenodd">
    <path d="M14.9861819,3.3749074 L0,3.3749074 L2.54779861,0.147127697 L17.4155429,0.147127697 L22.8200182,8.32849804 L28.5139809,0.147127697 L32.865053,0.147127697 L26.3089335,9.55629708 C24.3250168,12.4035618 21.1336875,12.3901949 19.1795046,9.52439505 L14.9861819,3.3749074 Z M11.0399523,7.915689 L3.78277696,7.915689 L3.78277696,9.85409117 L14.3909993,9.85409117 L11.0399523,12.6774161 L0,12.6774161 L0,5.00808574 L14.3909993,5.00808574 L11.0399523,7.915689 Z"/>
    <path stroke="#FFFFFF" stroke-width=".5" d="M36.0781759,11.4278699 L41.2235226,11.4278699 L41.2235226,10.9171271 L36.6101004,10.9171271 L36.6101004,7.92715367 L40.7120568,7.92715367 L40.7120568,7.41641089 L36.6101004,7.41641089 L36.6101004,4.49028034 L41.1723761,4.49028034 L41.1723761,3.97953755 L36.0781759,3.97953755 L36.0781759,11.4278699 Z M42.9318187,11.4278699 L47.6679927,11.4278699 L47.6679927,10.9171271 L43.4637432,10.9171271 L43.4637432,3.97953755 L42.9318187,3.97953755 L42.9318187,11.4278699 Z M49.2637663,11.4278699 L54.409113,11.4278699 L54.409113,10.9171271 L49.7956908,10.9171271 L49.7956908,7.92715367 L53.8976472,7.92715367 L53.8976472,7.41641089 L49.7956908,7.41641089 L49.7956908,4.49028034 L54.3579664,4.49028034 L54.3579664,3.97953755 L49.2637663,3.97953755 L49.2637663,11.4278699 Z M59.3601027,11.5555556 C60.6285381,11.5555556 61.4468835,11.0341723 62.203853,10.2574176 L61.8458269,9.8956415 C61.1195454,10.6404747 60.4137225,11.0554532 59.3805614,11.0554532 C57.6722653,11.0554532 56.3526834,9.58706773 56.3526834,7.7037037 L56.3526834,7.68242275 C56.3526834,5.8096992 57.6518067,4.35195416 59.3703321,4.35195416 C60.4444104,4.35195416 61.1604626,4.82013505 61.784451,5.44792306 L62.1629358,5.04358502 C61.4264249,4.34131369 60.6592261,3.85185185 59.3805614,3.85185185 C57.3142392,3.85185185 55.8003002,5.59688971 55.8003002,7.7037037 L55.8003002,7.72498465 C55.8003002,9.86372007 57.3142392,11.5555556 59.3601027,11.5555556 Z M65.6511331,11.4278699 L66.1830576,11.4278699 L66.1830576,4.49028034 L68.6790111,4.49028034 L68.6790111,3.97953755 L63.1551796,3.97953755 L63.1551796,4.49028034 L65.6511331,4.49028034 L65.6511331,11.4278699 Z M70.2952433,11.4278699 L70.2952433,3.97953755 L73.3026626,3.97953755 C74.1823839,3.97953755 74.8882069,4.26683037 75.3178382,4.7137303 C75.6554057,5.06486597 75.859992,5.56496828 75.859992,6.09699202 L75.859992,6.11827297 C75.859992,7.36320851 74.9700414,8.07612032 73.7629819,8.24636791 L76.1259543,11.4278699 L75.4508193,11.4278699 L73.1696815,8.34213219 L70.8271678,8.34213219 L70.8271678,11.4278699 L70.2952433,11.4278699 Z M70.8271678,7.84202988 L73.2412867,7.84202988 C74.4381169,7.84202988 75.3280675,7.21424187 75.3280675,6.13955392 L75.3280675,6.11827297 C75.3280675,5.11806834 74.571098,4.49028034 73.2719747,4.49028034 L70.8271678,4.49028034 L70.8271678,7.84202988 Z M77.7626451,11.4278699 L78.2945696,11.4278699 L78.2945696,3.97953755 L77.7626451,3.97953755 L77.7626451,11.4278699 Z M83.7365666,11.5555556 C85.005002,11.5555556 85.8233474,11.0341723 86.5803169,10.2574176 L86.2222908,9.8956415 C85.4960092,10.6404747 84.7901863,11.0554532 83.7570252,11.0554532 C82.0487292,11.0554532 80.7291472,9.58706773 80.7291472,7.7037037 L80.7291472,7.68242275 C80.7291472,5.8096992 82.0282705,4.35195416 83.7467959,4.35195416 C84.8208742,4.35195416 85.5369265,4.82013505 86.1609149,5.44792306 L86.5393996,5.04358502 C85.8028887,4.34131369 85.0356899,3.85185185 83.7570252,3.85185185 C81.6907031,3.85185185 80.1767641,5.59688971 80.1767641,7.7037037 L80.1767641,7.72498465 C80.1767641,9.86372007 81.6907031,11.5555556 83.7365666,11.5555556 Z M93.6487753,11.4810722 L94.1193239,11.4810722 L97.2699538,3.97953755 L96.7073413,3.97953755 L93.894279,10.8320033 L91.0914459,3.97953755 L90.4981455,3.97953755 L93.6487753,11.4810722 Z M98.7838928,11.4278699 L103.92924,11.4278699 L103.92924,10.9171271 L99.3158173,10.9171271 L99.3158173,7.92715367 L103.417774,7.92715367 L103.417774,7.41641089 L99.3158173,7.41641089 L99.3158173,4.49028034 L103.878093,4.49028034 L103.878093,3.97953755 L98.7838928,3.97953755 L98.7838928,11.4278699 Z M105.637536,11.4278699 L106.16946,11.4278699 L106.16946,7.93779415 L110.752194,7.93779415 L110.752194,11.4278699 L111.284119,11.4278699 L111.284119,3.97953755 L110.752194,3.97953755 L110.752194,7.42705136 L106.16946,7.42705136 L106.16946,3.97953755 L105.637536,3.97953755 L105.637536,11.4278699 Z M113.483422,11.4278699 L114.015347,11.4278699 L114.015347,3.97953755 L113.483422,3.97953755 L113.483422,11.4278699 Z M119.457344,11.5555556 C120.725779,11.5555556 121.544124,11.0341723 122.301094,10.2574176 L121.943068,9.8956415 C121.216786,10.6404747 120.510963,11.0554532 119.477802,11.0554532 C117.769506,11.0554532 116.449924,9.58706773 116.449924,7.7037037 L116.449924,7.68242275 C116.449924,5.8096992 117.749048,4.35195416 119.467573,4.35195416 C120.541651,4.35195416 121.257704,4.82013505 121.881692,5.44792306 L122.260177,5.04358502 C121.523666,4.34131369 120.756467,3.85185185 119.477802,3.85185185 C117.41148,3.85185185 115.897541,5.59688971 115.897541,7.7037037 L115.897541,7.72498465 C115.897541,9.86372007 117.41148,11.5555556 119.457344,11.5555556 Z M123.763886,11.4278699 L128.50006,11.4278699 L128.50006,10.9171271 L124.295811,10.9171271 L124.295811,3.97953755 L123.763886,3.97953755 L123.763886,11.4278699 Z M130.095834,11.4278699 L135.241181,11.4278699 L135.241181,10.9171271 L130.627758,10.9171271 L130.627758,7.92715367 L134.729715,7.92715367 L134.729715,7.41641089 L130.627758,7.41641089 L130.627758,4.49028034 L135.190034,4.49028034 L135.190034,3.97953755 L130.095834,3.97953755 L130.095834,11.4278699 Z M139.373825,11.5342746 C140.754783,11.5342746 141.747027,10.7043176 141.747027,9.50194393 L141.747027,9.48066298 C141.747027,8.39533456 141.051433,7.77818703 139.394284,7.42705136 C137.696217,7.06527522 137.307503,6.58645386 137.307503,5.79905873 L137.307503,5.77777778 C137.307503,5.00102312 138.003096,4.37323511 139.056716,4.37323511 C139.844374,4.37323511 140.519509,4.60732556 141.194644,5.21383262 L141.532211,4.77757315 C140.805929,4.17106609 140.120565,3.8731328 139.077175,3.8731328 C137.747363,3.8731328 136.775578,4.72437078 136.775578,5.83098015 L136.775578,5.8522611 C136.775578,6.98015142 137.471172,7.58665848 139.189697,7.94843462 C140.816159,8.28892981 141.215102,8.74647023 141.215102,9.53386536 L141.215102,9.55514631 C141.215102,10.4063843 140.478591,11.0341723 139.404513,11.0341723 C138.350893,11.0341723 137.624612,10.6830366 136.836954,9.92756292 L136.489157,10.3425414 C137.34842,11.140577 138.228141,11.5342746 139.373825,11.5342746 Z"/>
  </g>
</svg>
